<svg width="40" height="40" viewBox="0 0 40 40" fill="none" xmlns="http://www.w3.org/2000/svg">
<path fill-rule="evenodd" clip-rule="evenodd" d="M31.7519 25.8449V19.415L21.2823 21.4851C20.8687 21.5665 20.4426 21.6071 20.0166 21.6071C19.5905 21.6071 19.1686 21.5665 18.7508 21.4851L8.28125 19.415V25.8449C8.28125 27.5083 13.5346 28.8586 20.0165 28.8586C26.4984 28.8586 31.7519 27.5124 31.7519 25.8449Z" fill="#657786"/>
<path fill-rule="evenodd" clip-rule="evenodd" d="M39.1602 14.7137L21.0382 11.1266C20.7031 11.0615 20.3598 11.0249 20.0165 11.0249C19.6731 11.0249 19.3339 11.0574 18.9948 11.1266L0.872728 14.7137C-0.235896 14.9333 -0.235896 16.4869 0.872728 16.7065L8.28121 18.1706L18.9948 20.2895C19.3299 20.3546 19.6731 20.3912 20.0165 20.3912C20.3598 20.3912 20.699 20.3586 21.0382 20.2895L31.7517 18.1706L35.0858 17.5117V25.1332C34.6928 25.4708 34.4446 25.9711 34.4446 26.5241C34.4446 27.545 35.2884 28.3746 36.3267 28.3746C37.365 28.3746 38.2088 27.545 38.2088 26.5241C38.2088 25.967 37.9606 25.4708 37.5677 25.1332V17.0196L39.1602 16.7065C40.2647 16.4869 40.2647 14.9333 39.1602 14.7137Z" fill="#657786"/>
</svg>
