<svg width="40" height="40" viewBox="0 0 40 40" fill="none" xmlns="http://www.w3.org/2000/svg">
<path fill-rule="evenodd" clip-rule="evenodd" d="M32.8294 10.4105H32.1621C31.4012 10.4473 30.6818 10.7648 30.1463 11.3004C29.299 9.17166 28.201 6.77416 27.5338 5.80051C26.3299 4.0905 24.5753 3.6124 23.3608 3.40301C21.3545 3.09742 19.325 2.96547 17.2955 3.00866C15.2698 2.96377 13.2439 3.09338 11.2409 3.39603C10.0264 3.60542 8.27178 4.09399 7.0679 5.79353C6.39006 6.75671 5.30269 9.1577 4.44833 11.2725C3.91275 10.7369 3.19342 10.4194 2.43246 10.3826H1.76521C0.795088 10.3939 0.0114368 11.1686 0 12.1275V13.3943C0.0055669 14.3925 0.815603 15.204 1.82523 15.223H2.60192H2.7043C2.61251 15.3416 2.52543 15.458 2.44305 15.572C1.58888 16.8552 1.155 18.3673 1.20034 19.9028V28.4319C1.19658 28.906 1.38402 29.3622 1.72123 29.6994C2.05843 30.0367 2.51763 30.2273 2.99733 30.2291H5.33094C6.32728 30.2291 7.13498 29.4307 7.13498 28.4458V27.0883H23.8181C24.9061 23.1863 28.4559 20.3266 32.6664 20.3276C32.9126 20.3277 33.1565 20.3375 33.3978 20.3568V19.9028C33.44 18.3662 33.0024 16.854 32.1445 15.572C32.0598 15.4486 31.9727 15.3323 31.8832 15.223H31.9856H32.7623C33.7652 15.2081 34.5757 14.4101 34.5946 13.4187V12.1519C34.5813 11.1943 33.7982 10.4218 32.8294 10.4105ZM10.5242 20.8067H7.21971C6.43979 20.8067 5.80754 20.1817 5.80754 19.4107V18.5627C5.81112 18.133 6.01473 17.7289 6.35951 17.4671C6.7043 17.2054 7.15183 17.1152 7.57275 17.2226L10.8772 18.0776C11.5343 18.2771 11.9507 18.9152 11.8635 19.5891C11.7763 20.2631 11.2109 20.7771 10.5242 20.8067ZM27.3608 20.8067C28.1407 20.8067 28.7729 20.1817 28.7729 19.4107L28.7835 18.5627C28.7799 18.133 28.5763 17.7289 28.2315 17.4671C27.8868 17.2054 27.4392 17.1152 27.0183 17.2226L23.7138 18.0776C23.0568 18.2771 22.6404 18.9152 22.7276 19.5891C22.8148 20.2631 23.3802 20.7771 24.0669 20.8067H27.3608ZM40 29.9024C39.9995 33.8224 36.8535 37 32.973 37C29.0928 36.9956 25.9489 33.8184 25.9459 29.8988C25.9474 25.9788 29.0942 22.802 32.9747 22.803C36.8553 22.804 40.0005 25.9823 40 29.9024ZM32.3887 25.746V26.2801C31.1647 26.5232 30.4561 27.3217 30.4561 28.3392C30.4561 29.4608 31.2916 30.0377 32.5156 30.4543C33.3616 30.7454 33.7291 31.0125 33.7291 31.4611C33.7291 31.9098 33.2823 32.1769 32.6293 32.1769C32.2081 32.1745 31.7901 32.1023 31.392 31.9632C31.3214 31.9387 31.2473 31.9261 31.1726 31.9258C30.8801 31.9233 30.6222 32.1193 30.5434 32.4039L30.5302 32.4599C30.445 32.8021 30.6368 33.1523 30.969 33.2611C31.4135 33.4113 31.8758 33.5011 32.3438 33.5282V34.0623C32.3438 34.375 32.5947 34.6285 32.9042 34.6285C33.2138 34.6285 33.4647 34.375 33.4647 34.0623V33.4321C34.7813 33.2024 35.503 32.3371 35.503 31.2956C35.503 30.254 34.9531 29.6184 33.5916 29.1324C32.6214 28.7638 32.2195 28.5208 32.2195 28.1389C32.2195 27.8157 32.4601 27.4926 33.203 27.4926C33.5458 27.4914 33.8869 27.5409 34.2155 27.6395C34.2747 27.6572 34.3362 27.6662 34.3979 27.6662C34.7288 27.6628 35.0066 27.4137 35.0492 27.0822C35.0918 26.7507 34.8862 26.4382 34.5671 26.3496C34.2212 26.26 33.8666 26.2089 33.5097 26.1974V25.746C33.5097 25.5437 33.4028 25.3568 33.2294 25.2557C33.056 25.1546 32.8424 25.1546 32.6689 25.2557C32.4955 25.3568 32.3887 25.5437 32.3887 25.746Z" fill="#657786"/>
</svg>
