<svg width="40" height="40" viewBox="0 0 40 40" fill="none" xmlns="http://www.w3.org/2000/svg">
<path fill-rule="evenodd" clip-rule="evenodd" d="M38.0731 18.4307C37.6379 18.3331 37.1846 18.3588 36.7629 18.5051C35.9617 15.5333 34.2791 12.8822 31.9425 10.9102C31.6797 9.48016 31.9896 8.00296 32.8038 6.80473C33.0198 6.4401 33.0089 5.98201 32.7758 5.62832C32.5427 5.27464 32.1293 5.08876 31.714 5.15096C28.9589 5.51065 27.3793 6.80473 26.4936 7.98717C25.4589 7.69175 24.3955 7.51152 23.3222 7.4497C23.3032 7.44787 23.2841 7.44787 23.2651 7.4497C25.2121 12.901 23.4659 19.0023 18.9421 22.5533C14.4184 26.1043 8.14989 26.2945 3.42446 23.0241C3.40633 23.07 3.39798 23.1193 3.39997 23.1688C3.58407 27.201 5.36436 30.988 8.33869 33.6743C9.36204 34.5739 9.95631 35.8741 9.97133 37.2465V39.016C9.97133 39.5595 10.4062 40 10.9427 40H16.8488C17.3853 40 17.8202 39.5595 17.8202 39.016V37.4904H18.2284H22.5141V39.0077C22.5141 39.5512 22.949 39.9917 23.4855 39.9917H29.412C29.9485 39.9917 30.3834 39.5512 30.3834 39.0077V37.6599C30.3734 36.2341 30.9787 34.875 32.0405 33.9389C34.3416 31.9617 35.9932 29.321 36.7751 26.3688C37.1974 26.5125 37.6504 26.5368 38.0853 26.4391C39.2253 26.1524 40.019 25.1067 39.9996 23.9171V20.9651C40.0204 19.7683 39.2207 18.7163 38.0731 18.4307ZM30.8038 18.6912C30.2111 18.6912 29.6768 18.3296 29.45 17.7749C29.2232 17.2203 29.3486 16.5819 29.7677 16.1574C30.1867 15.7329 30.817 15.6059 31.3645 15.8357C31.9121 16.0654 32.2691 16.6066 32.2691 17.2069C32.2712 17.602 32.1178 17.9817 31.8428 18.2618C31.5678 18.542 31.1938 18.6995 30.8038 18.6995V18.6912ZM10.8489 22.9786C16.84 22.9786 21.697 18.0594 21.6977 11.9907C21.6985 5.92199 16.8427 1.00152 10.8516 1C4.86046 0.998478 0.002254 5.91648 0 11.9852C0.00449861 18.0532 4.85841 22.9717 10.8489 22.9786ZM9.94684 6.38302V5.55613C9.94684 5.24299 10.1118 4.95363 10.3795 4.79706C10.6472 4.64049 10.9771 4.64049 11.2448 4.79706C11.5125 4.95363 11.6774 5.24299 11.6774 5.55613V6.25485C12.2285 6.27279 12.776 6.35182 13.3101 6.49051C13.8026 6.62774 14.1201 7.11155 14.0543 7.62469C13.9886 8.13784 13.5597 8.5235 13.0489 8.52878C12.9535 8.52878 12.8586 8.51486 12.7672 8.48744C12.2599 8.33486 11.7332 8.25825 11.204 8.26004C10.057 8.26004 9.68562 8.76031 9.68562 9.26057C9.68562 9.8518 10.306 10.228 11.804 10.7986C13.906 11.551 14.755 12.535 14.755 14.1475C14.755 15.7599 13.6407 17.0994 11.608 17.455V18.4307C11.608 18.9148 11.2206 19.3072 10.7428 19.3072C10.2649 19.3072 9.87745 18.9148 9.87745 18.4307V17.6038C9.15501 17.5619 8.44128 17.4229 7.75503 17.1904C7.24216 17.022 6.94594 16.4797 7.07748 15.9501L7.09789 15.8632C7.21954 15.4226 7.61766 15.1193 8.06931 15.1232C8.1846 15.1236 8.29905 15.1431 8.40808 15.1811C9.02265 15.3964 9.66796 15.5082 10.3183 15.5118C11.3264 15.5118 12.0162 15.0984 12.0162 14.4038C12.0162 13.7092 11.4489 13.2958 10.1428 12.8451C8.25298 12.2001 6.9632 11.3071 6.9632 9.57066C6.9632 7.99544 8.05706 6.75925 9.94684 6.38302Z" fill="#657786"/>
</svg>
