<svg width="40" height="40" viewBox="0 0 40 40" fill="none" xmlns="http://www.w3.org/2000/svg">
<path fill-rule="evenodd" clip-rule="evenodd" d="M39.7373 37.4034L37.9331 35.546C37.2142 34.8058 36.2496 34.3982 35.2173 34.3982C34.1848 34.3982 33.2202 34.8058 32.5013 35.546L31.52 36.5563C31.1543 36.9328 30.6637 37.14 30.1387 37.14C29.6138 37.14 29.1232 36.9328 28.7575 36.5563L27.7762 35.546C27.0572 34.8058 26.0927 34.3982 25.0604 34.3982C24.0278 34.3982 23.0633 34.8058 22.3443 35.546L21.3631 36.5563C20.9974 36.9328 20.5067 37.14 19.9821 37.14C19.4569 37.14 18.9665 36.9328 18.6008 36.5563L17.6195 35.546C16.9006 34.8058 15.936 34.3982 14.9037 34.3982C13.8711 34.3982 12.9069 34.8058 12.1877 35.546L11.2061 36.5563C10.8404 36.9328 10.35 37.14 9.82511 37.14C9.30018 37.14 8.80981 36.9328 8.44383 36.5563L7.46255 35.546C6.74334 34.8058 5.77881 34.3982 4.7465 34.3982C3.7142 34.3982 2.74966 34.8058 2.02407 35.5532L0.256342 37.4105C-0.0979485 37.7825 -0.0830645 38.3711 0.289033 38.7253C0.661132 39.0789 1.24984 39.0648 1.60413 38.6923L3.36522 36.8419C3.73094 36.4654 4.22131 36.2581 4.74624 36.2581C5.27143 36.2581 5.7618 36.4654 6.12752 36.8419L7.10879 37.8521C7.828 38.5924 8.79254 39 9.82484 39C10.8571 39 11.8217 38.5924 12.5406 37.8521L13.5219 36.8419C13.8876 36.4654 14.3783 36.2581 14.9032 36.2581C15.4281 36.2581 15.9185 36.4654 16.2842 36.8419L17.2655 37.8521C17.9844 38.5924 18.9489 39 19.9815 39C21.0138 39 21.9784 38.5924 22.6973 37.8521L23.6786 36.8419C24.0443 36.4654 24.5349 36.2581 25.0599 36.2581C25.5848 36.2581 26.0752 36.4654 26.4409 36.8419L27.4222 37.8521C28.1411 38.5924 29.1059 39 30.1382 39C31.1705 39 32.1353 38.5924 32.8543 37.8521L33.8355 36.8419C34.2012 36.4654 34.6919 36.2581 35.2168 36.2581C35.7417 36.2581 36.2321 36.4654 36.5978 36.8419L38.402 38.6992C38.76 39.068 39.3487 39.0757 39.7173 38.7183C40.0865 38.3604 40.095 37.7716 39.7373 37.4034ZM4.17302 18.9333C4.16629 18.9234 4.15956 18.9135 4.15354 18.9028C4.13095 18.8625 4.11075 18.8205 4.094 18.7766C2.9211 15.6848 3.02262 12.3215 4.37972 9.30596C5.73681 6.29043 8.18761 3.98381 11.28 2.81123C14.3727 1.63839 17.7367 1.74042 20.7534 3.09687C23.7695 4.45385 26.0768 6.90368 27.2497 9.99547C27.2699 10.0484 27.2829 10.1026 27.293 10.1568C27.2962 10.1732 27.2983 10.1894 27.3004 10.2059C27.3057 10.2476 27.3084 10.2891 27.3081 10.3305L27.3084 10.3456C27.3087 10.3544 27.3089 10.3631 27.3084 10.3717C27.3057 10.4243 27.2988 10.4761 27.2874 10.5272C27.2856 10.5351 27.2833 10.5428 27.281 10.5505C27.2794 10.5556 27.2779 10.5607 27.2765 10.566C27.2659 10.6055 27.2528 10.6446 27.2369 10.6826C27.2308 10.6972 27.2249 10.7116 27.218 10.7259C27.1984 10.7674 27.1755 10.8077 27.1495 10.8463C27.1475 10.8492 27.1458 10.8521 27.1441 10.855C27.1421 10.8586 27.14 10.8622 27.1375 10.8657C27.1109 10.9029 27.0819 10.9385 27.0495 10.972C27.0471 10.9743 27.0446 10.9765 27.042 10.9787L27.042 10.9787C27.0394 10.9809 27.0368 10.9831 27.0344 10.9855C27.0263 10.9936 27.0176 11.0011 27.0089 11.0087L26.9972 11.019C26.9671 11.0456 26.936 11.07 26.9033 11.0923L26.8909 11.1008L26.8908 11.1008C26.8815 11.1072 26.8722 11.1135 26.8624 11.1194C26.8154 11.1479 26.7667 11.1728 26.716 11.1925L26.7149 11.1929L26.7131 11.1938C26.7123 11.1943 26.7114 11.1948 26.7104 11.1952C26.7067 11.1966 26.703 11.1974 26.6993 11.1982C26.6961 11.1989 26.6929 11.1996 26.6897 11.2007C26.6455 11.2161 26.6006 11.2281 26.5546 11.2369C26.5379 11.2401 26.5211 11.243 26.5044 11.2454C26.4579 11.2515 26.4114 11.2547 26.3643 11.2539C26.3606 11.2537 26.3569 11.2539 26.3532 11.2541C26.3494 11.2543 26.3457 11.2545 26.342 11.2544C26.2899 11.2523 26.2376 11.2443 26.1857 11.2331C26.1733 11.2304 26.1611 11.2271 26.149 11.2237L26.1387 11.2209C26.1313 11.2189 26.124 11.2172 26.1167 11.2154L26.1166 11.2154C26.1046 11.2126 26.0927 11.2097 26.081 11.2058C22.731 10.0681 22.1554 11.6132 21.735 12.7419L21.7349 12.7421C21.5688 13.1877 21.0933 13.4367 20.6324 13.3184C18.6343 12.8072 17.2123 12.9164 16.2029 13.1627L20.4779 24.4304C20.5379 24.4298 20.598 24.4295 20.6582 24.4295C26.7633 24.4295 32.1454 27.4846 35.3208 32.1304C35.2864 32.1297 35.2519 32.1294 35.2173 32.1294C33.8401 32.1294 32.5465 32.6761 31.5899 33.6611L30.6087 34.6712C30.4807 34.8029 30.3191 34.8713 30.1387 34.8713C29.9584 34.8713 29.7967 34.8029 29.6688 34.6712L28.6875 33.661C27.731 32.6761 26.4375 32.1294 25.0604 32.1294C23.6831 32.1294 22.3896 32.6761 21.433 33.6611L20.4518 34.6712C20.3238 34.8029 20.1622 34.8713 19.9821 34.8713C19.8015 34.8713 19.6401 34.803 19.5121 34.6712L18.5308 33.661C17.5743 32.6761 16.2808 32.1294 14.9037 32.1294C13.5266 32.1294 12.2334 32.676 11.2765 33.6609L10.2949 34.6711C10.1668 34.803 10.0054 34.8713 9.82511 34.8713C9.64478 34.8713 9.4832 34.803 9.35482 34.6709L8.37386 33.661C7.6918 32.959 6.8388 32.4796 5.90645 32.2621C8.70086 28.0928 13.2611 25.1773 18.5351 24.5541L14.4633 13.8225C13.544 14.3074 12.4072 15.1686 11.251 16.8757C10.9845 17.2695 10.4635 17.3987 10.0436 17.1755L10.0434 17.1754C8.9795 16.6092 7.52359 15.8343 5.77163 18.9071C5.76448 18.9194 5.75649 18.9309 5.74847 18.9424L5.73681 18.9594L5.72821 18.9727C5.72363 18.9799 5.71905 18.9871 5.71396 18.994C5.68313 19.036 5.64964 19.0753 5.61296 19.1112C5.60768 19.1164 5.60201 19.1212 5.59637 19.126C5.59264 19.1292 5.58891 19.1323 5.58532 19.1356C5.55289 19.1646 5.51914 19.1911 5.48326 19.2153L5.47452 19.2213L5.47445 19.2214C5.46575 19.2274 5.45705 19.2334 5.44791 19.239C5.40219 19.2669 5.35435 19.291 5.30438 19.3107L5.30219 19.3117L5.2988 19.3135C5.29701 19.3145 5.29521 19.3155 5.29322 19.3163C5.2884 19.3182 5.2834 19.3194 5.27838 19.3206C5.27455 19.3215 5.2707 19.3225 5.26691 19.3237C5.23023 19.3365 5.19249 19.3471 5.15421 19.3551L5.14361 19.3573C5.13306 19.3596 5.12251 19.3618 5.11196 19.3636C5.06305 19.3716 5.01388 19.3769 4.96365 19.3769H4.96338C4.9392 19.3769 4.91527 19.3758 4.89109 19.3739C4.8848 19.3734 4.87859 19.3723 4.87237 19.3712C4.86703 19.3702 4.86168 19.3692 4.85627 19.3686C4.83527 19.3662 4.81454 19.3633 4.79381 19.3593C4.76909 19.3548 4.74491 19.3492 4.72099 19.3426C4.70212 19.3373 4.68324 19.332 4.66464 19.3256C4.64019 19.3173 4.61653 19.3078 4.59288 19.2974C4.57534 19.2897 4.55779 19.282 4.54078 19.2732C4.51793 19.2615 4.49613 19.2485 4.4746 19.2352C4.45786 19.2249 4.44112 19.2145 4.4249 19.2031C4.40497 19.1887 4.3861 19.1733 4.36723 19.1574L4.35879 19.1504C4.34569 19.1396 4.33271 19.1288 4.32045 19.117C4.30605 19.1032 4.29286 19.0884 4.27962 19.0736L4.27957 19.0735L4.27022 19.0631L4.25978 19.0516C4.24932 19.0401 4.23885 19.0287 4.22929 19.0163C4.21448 18.9973 4.20135 18.9768 4.18822 18.9563L4.18304 18.9483L4.17302 18.9333ZM20.6399 5.11546C20.4275 5.002 20.212 4.89253 19.99 4.79289C18.1994 3.98753 16.2651 3.70455 14.365 3.94608C16.4211 4.94063 18.9601 6.86223 20.7754 10.5527C21.4441 9.6373 22.6085 8.77242 24.704 8.9903L24.6846 8.95756L24.6652 8.92467C24.544 8.72432 24.4183 8.5277 24.2846 8.33692C24.275 8.32319 24.265 8.3098 24.2551 8.29641C24.2473 8.28596 24.2395 8.27551 24.2319 8.26491C24.1089 8.0922 23.98 7.92401 23.8468 7.75953L23.8253 7.73275C23.7999 7.70096 23.7744 7.66916 23.7482 7.63784C23.6004 7.46088 23.4473 7.28843 23.2881 7.12157C23.271 7.10365 23.2534 7.08608 23.2358 7.06851L23.2357 7.06844C23.222 7.05476 23.2083 7.04107 23.1949 7.02724C23.0513 6.88057 22.9036 6.73841 22.7515 6.60051C22.7392 6.58925 22.7269 6.57788 22.7147 6.56651C22.6943 6.54756 22.6739 6.5286 22.6529 6.51017C22.4799 6.35739 22.301 6.21045 22.1176 6.06883C22.0913 6.04858 22.0646 6.02878 22.0379 6.00899L22.0379 6.00897L22.0378 6.00894L22.0378 6.00892L22.0377 6.00885L21.993 5.97556C21.8226 5.84802 21.6485 5.72473 21.4696 5.60729C21.4578 5.59955 21.4462 5.59152 21.4346 5.5835L21.4345 5.58347C21.4214 5.57443 21.4083 5.56539 21.395 5.5568C21.1975 5.42953 20.9942 5.30996 20.7871 5.19517C20.7435 5.17087 20.6992 5.14721 20.6551 5.12361L20.6399 5.11546ZM11.7781 4.61619C11.8007 4.60721 11.8232 4.59786 11.8456 4.58851L11.8457 4.58849C11.877 4.57543 11.9083 4.56237 11.9402 4.5503C11.9732 4.5378 12.0065 4.52645 12.0397 4.5151C12.0616 4.50764 12.0834 4.50017 12.1053 4.49237C14.0163 5.04797 17.4045 6.65339 19.6222 11.2193C17.8186 10.9534 16.2119 11.1115 14.6539 11.7021C13.0958 12.2931 11.7879 13.2406 10.6148 14.6348C9.24543 9.74704 10.7165 6.2992 11.7781 4.61619ZM5.17681 13.5581C5.16458 13.7125 5.15661 13.8671 5.15129 14.022C5.14943 14.0691 5.14491 14.3847 5.14624 14.4958L5.14681 14.534L5.14681 14.5341C5.14735 14.5723 5.1479 14.6106 5.1489 14.6488C5.15209 14.7681 5.1574 14.8872 5.16458 15.0065C5.16566 15.0232 5.16647 15.0398 5.16728 15.0564C5.16826 15.0766 5.16924 15.0967 5.17069 15.1168C5.18159 15.2711 5.19594 15.4252 5.21375 15.5794C5.21622 15.6 5.21904 15.6205 5.22186 15.6411L5.22784 15.6856C5.24299 15.8052 5.25973 15.9248 5.27913 16.0441C5.28693 16.0923 5.29544 16.1404 5.30399 16.1886L5.30399 16.1886L5.304 16.1887L5.30545 16.1969C5.31025 16.224 5.31569 16.2511 5.32113 16.2782C5.32502 16.2976 5.3289 16.317 5.33256 16.3364C6.75663 14.7854 8.20196 14.66 9.30949 14.9013C8.21977 10.935 8.84516 7.81321 9.72438 5.70587C8.14269 6.78491 6.88234 8.27926 6.07675 10.0693C6.01137 10.215 5.95024 10.3614 5.89177 10.5086C5.87859 10.5415 5.86613 10.5745 5.85365 10.6076L5.83967 10.6446C5.79954 10.7498 5.76073 10.8556 5.72406 10.9616L5.71828 10.9784C5.7032 11.0222 5.68817 11.0658 5.67356 11.1099C5.63582 11.2246 5.6002 11.3397 5.56645 11.4553L5.55426 11.4956L5.55425 11.4957C5.54742 11.5181 5.54059 11.5405 5.53429 11.5629C5.49229 11.713 5.45349 11.8637 5.41814 12.0149C5.41346 12.0352 5.40913 12.0557 5.4048 12.0761C5.4015 12.0917 5.3982 12.1072 5.39475 12.1227C5.36844 12.2399 5.34425 12.3576 5.32219 12.4756C5.31289 12.5258 5.30412 12.5763 5.29561 12.6265C5.27674 12.736 5.25973 12.8457 5.24458 12.9557L5.24069 12.983C5.23529 13.0207 5.22989 13.0584 5.22518 13.0963C5.20604 13.2493 5.1893 13.4029 5.17681 13.5581Z" fill="#657786"/>
</svg>
