<svg width="40" height="40" viewBox="0 0 40 40" fill="none" xmlns="http://www.w3.org/2000/svg">
<path fill-rule="evenodd" clip-rule="evenodd" d="M21.4456 31.8866C22.5315 30.1099 23.1579 28.0175 23.1579 25.7778C23.1579 23.4622 22.4884 21.3042 21.3337 19.4896C21.3715 19.549 21.4088 19.6088 21.4456 19.6689C23.1386 17.6927 25.638 16.4444 28.4211 16.4444C33.508 16.4444 37.6471 20.6149 37.6471 25.7778C37.6471 30.9407 33.508 35.1111 28.4211 35.1111C25.638 35.1111 23.1386 33.8628 21.4456 31.8866ZM20 33.7852C17.8889 36.0383 14.8969 37.4444 11.5789 37.4444C5.18407 37.4444 0 32.2211 0 25.7778C0 19.3345 5.18407 14.1111 11.5789 14.1111C14.8969 14.1111 17.8889 15.5172 20 17.7703C22.1111 15.5172 25.1031 14.1111 28.4211 14.1111C34.8159 14.1111 40 19.3345 40 25.7778C40 32.2211 34.8159 37.4444 28.4211 37.4444C25.1031 37.4444 22.1111 36.0383 20 33.7852ZM11.5789 35.1111C6.49202 35.1111 2.35294 30.9407 2.35294 25.7778C2.35294 20.6149 6.49202 16.4444 11.5789 16.4444C16.6659 16.4444 20.805 20.6149 20.805 25.7778C20.805 30.9407 16.6659 35.1111 11.5789 35.1111ZM15.4381 8.73968L19.6634 12.8669C19.8437 13.0444 20.1416 13.0444 20.3297 12.8669L24.5551 8.73968C25.8877 7.42822 25.8877 5.30674 24.5629 3.99527C24.5629 3.99527 24.5629 3.99527 24.5551 3.98756C23.3243 2.77639 21.3645 2.6761 20.0005 3.7407C18.6365 2.66838 16.6767 2.76867 15.4381 3.98756C14.1132 5.30674 14.1132 7.42822 15.4381 8.73968Z" fill="#657786"/>
</svg>
