<svg width="40" height="40" viewBox="0 0 40 40" fill="none" xmlns="http://www.w3.org/2000/svg">
<path fill-rule="evenodd" clip-rule="evenodd" d="M32 27.1429C31.9809 34.2355 26.3956 39.9804 19.5 40C12.6044 39.9804 7.01908 34.2355 7 27.1429V12.8571C7 5.75634 12.5964 0 19.5 0C26.4036 0 32 5.75634 32 12.8571V27.1429ZM20.9653 30.6643L22.3542 28.5214H22.4236C22.7772 27.997 22.8318 27.3184 22.5671 26.7413C22.3023 26.1642 21.7583 25.7762 21.14 25.7234C20.5217 25.6707 19.923 25.9613 19.5694 26.4857C19.2159 25.9613 18.6172 25.6707 17.9989 25.7234C17.3806 25.7762 16.8366 26.1642 16.5718 26.7413C16.307 27.3184 16.3617 27.997 16.7153 28.5214L18.1042 30.6643C18.4281 31.1488 18.9631 31.4382 19.5347 31.4382C20.1064 31.4382 20.6414 31.1488 20.9653 30.6643ZM16.6557 4.92072C16.5918 4.87505 16.5102 4.86463 16.4375 4.89286C12.7228 6.41259 10.5807 10.4316 11.3329 14.4701C12.0851 18.5087 15.5196 21.4288 19.5174 21.4288C23.5151 21.4288 26.9497 18.5087 27.7019 14.4701C28.4541 10.4316 26.312 6.41259 22.5972 4.89286C22.5245 4.86463 22.4429 4.87505 22.3791 4.92072C22.3152 4.96639 22.2773 5.04146 22.2778 5.12143C22.274 6.22832 21.4025 7.12465 20.3264 7.12857H18.7083C17.6322 7.12465 16.7608 6.22832 16.7569 5.12143C16.7574 5.04146 16.7195 4.96639 16.6557 4.92072ZM15.3368 12.9253C15.2569 12.9253 15.1825 12.9668 15.1389 13.0357H15.1319C14.9622 13.2396 14.6958 13.3283 14.4421 13.2656C14.1884 13.2028 13.9903 12.9991 13.9293 12.7382C13.8683 12.4772 13.9546 12.2031 14.1528 12.0286C14.8132 11.3791 15.8535 11.3791 16.5139 12.0286C16.7121 12.2031 16.7984 12.4772 16.7374 12.7382C16.6763 12.9991 16.4783 13.2028 16.2246 13.2656C15.9709 13.3283 15.7044 13.2396 15.5347 13.0357C15.4912 12.9668 15.4167 12.9253 15.3368 12.9253ZM16.9167 16.75C18.3472 18.2147 20.6597 18.2147 22.0903 16.75C22.2885 16.5754 22.3748 16.3013 22.3138 16.0404C22.2527 15.7795 22.0547 15.5758 21.801 15.513C21.5473 15.4502 21.2808 15.539 21.1111 15.7429C20.2247 16.6529 18.7892 16.6529 17.9028 15.7429C17.6272 15.5002 17.2165 15.5165 16.96 15.7803C16.7035 16.0441 16.6877 16.4666 16.9236 16.75H16.9167ZM23.6701 12.9253C23.5903 12.9253 23.5158 12.9668 23.4722 13.0357H23.4653C23.2956 13.2396 23.0291 13.3283 22.7754 13.2656C22.5217 13.2028 22.3237 12.9991 22.2626 12.7382C22.2016 12.4772 22.2879 12.2031 22.4861 12.0286C23.1465 11.3791 24.1868 11.3791 24.8472 12.0286C25.0454 12.2031 25.1317 12.4772 25.0707 12.7382C25.0097 12.9991 24.8116 13.2028 24.5579 13.2656C24.3042 13.3283 24.0378 13.2396 23.8681 13.0357C23.8245 12.9668 23.75 12.9253 23.6701 12.9253Z" fill="#657786"/>
</svg>
