<svg width="95" height="43" viewBox="0 0 95 43" fill="none" xmlns="http://www.w3.org/2000/svg">
<path fill-rule="evenodd" clip-rule="evenodd" d="M31.6705 15.2275H32.7753V19.738C32.4203 19.6685 31.8134 19.5973 31.2064 19.5973C28.7104 19.5973 26.1078 20.8675 26.1078 24.1069V33.0222H21.3641V15.4042H25.0004L25.6437 17.3434H26.2143C26.9996 16.5672 28.7467 15.2275 31.6705 15.2275ZM9.19889 29.4422C11.9106 29.4422 13.5486 27.2938 13.5486 24.5458C13.5486 21.7971 11.9106 19.6486 9.19889 19.6486C6.48982 19.6486 4.67079 21.7971 4.67079 24.5458C4.67079 27.2938 6.48982 29.4422 9.19889 29.4422ZM35.9168 33.0221H40.4812V15.4041H35.9168V33.0221ZM9.05621 33.5296C4.20603 33.5296 0 30.1136 0 24.5817C0 18.9443 4.41901 15.5609 9.19906 15.5609C14.0129 15.5609 18.2224 18.9778 18.2224 24.5122C18.2224 30.1136 13.87 33.5296 9.05621 33.5296ZM68.1243 33.0221H72.6887V15.4041H68.1243V33.0221ZM88.1541 15.2275C92.7532 15.2275 95 18.611 95 23.4722V33.0222H90.2563V24.5297C90.2563 23.9302 90.684 19.4918 87.2624 19.3151C85.5853 19.2105 82.5914 20.1239 82.5914 24.7398V33.0222H77.8841V15.4042H81.5204L82.1273 17.5552H82.7343C83.4806 16.6744 85.1576 15.2275 88.1541 15.2275ZM53.9759 28.7222C56.685 28.7222 58.3257 26.5738 58.3257 23.8258C58.3257 21.077 56.685 18.9286 53.9759 18.9286C51.2651 18.9286 49.4478 21.077 49.4478 23.8258C49.4478 26.5738 51.2651 28.7222 53.9759 28.7222ZM44.6341 38.1307L47.6592 35.1392C51.2799 38.7174 57.1518 38.7174 60.7708 35.1392L63.795 38.1307C58.505 43.3582 49.9241 43.3582 44.6341 38.1307ZM53.2997 14.7253V14.6995H56.9361C58.9066 14.6995 60.5005 13.1223 60.5005 11.1763H64.7802C64.7802 13.9877 63.2668 16.4491 61.001 17.8068C62.2633 19.2974 63.033 21.282 63.033 23.6483C63.033 29.2522 58.6832 32.6691 53.8694 32.6691C49.0192 32.6691 44.8106 29.2522 44.8106 23.7204C44.8106 18.3651 48.8019 15.0434 53.2997 14.7253Z" fill="#1D1E1F"/>
</svg>
